<svg data-v-fde0c5aa="" xmlns="http://www.w3.org/2000/svg" viewBox="0 0 300 300" class="iconAbove"><!----><defs data-v-fde0c5aa=""><!----></defs><rect data-v-fde0c5aa="" fill="#F0B591" x="0" y="0" width="300px" height="300px" class="logo-background-square"></rect><defs data-v-fde0c5aa=""><!----></defs><g data-v-fde0c5aa="" id="a2a68667-3505-40da-bf25-13d9381634b0" fill="#392F2F" transform="matrix(6.035255404493963,0,0,6.035255404493963,27.041721249348104,174.83248740684044)"><path d="M0.90 6.22L0.90 6.22L0.90 6.22Q0.71 6.17 0.51 6.05L0.51 6.05L0.51 6.05Q0.31 5.93 0.16 5.78L0.16 5.78L0.16 5.78Q0 5.62-0.08 5.43L-0.08 5.43L-0.08 5.43Q-0.16 5.24-0.12 5.02L-0.12 5.02L-0.12 5.02Q-0.04 4.57 0.40 4.17L0.40 4.17L0.40 4.17Q0.83 3.77 1.57 3.54L1.57 3.54L1.57 3.50L1.57 3.50Q1.59 3.35 1.77 3.19L1.77 3.19L1.77 3.19Q1.96 3.04 2.23 2.98L2.23 2.98L2.23 2.98Q2.49 2.93 2.60 2.98L2.60 2.98L2.60 2.98Q2.72 3.04 2.72 3.13L2.72 3.13L2.72 3.13Q2.72 3.16 2.71 3.19L2.71 3.19L2.71 3.19Q2.71 3.23 2.71 3.25L2.71 3.25L2.71 3.32L2.71 3.32Q3.38 3.27 4.20 3.36L4.20 3.36L4.20 3.36Q5.18 3.49 5.80 3.83L5.80 3.83L5.80 3.83Q6.41 4.17 6.73 4.61L6.73 4.61L6.73 4.61Q7.04 5.06 7.12 5.54L7.12 5.54L7.12 5.54Q7.19 6.02 7.11 6.41L7.11 6.41L7.11 6.41Q7.03 6.88 6.81 7.25L6.81 7.25L6.81 7.25Q6.59 7.63 6.29 7.92L6.29 7.92L6.29 7.92Q5.99 8.22 5.62 8.44L5.62 8.44L5.62 8.44Q5.25 8.65 4.84 8.80L4.84 8.80L4.84 8.80Q5.28 8.90 5.58 9.11L5.58 9.11L5.58 9.11Q5.89 9.32 6.08 9.61L6.08 9.61L6.08 9.61Q6.28 9.90 6.36 10.25L6.36 10.25L6.36 10.25Q6.44 10.61 6.41 10.98L6.41 10.98L6.41 10.98Q6.38 11.55 6.12 12.05L6.12 12.05L6.12 12.05Q5.85 12.55 5.40 12.92L5.40 12.92L5.40 12.92Q4.95 13.29 4.33 13.49L4.33 13.49L4.33 13.49Q3.71 13.70 2.95 13.67L2.95 13.67L2.79 13.67L2.79 13.67Q2.58 13.85 2.34 13.94L2.34 13.94L2.34 13.94Q2.11 14.03 1.89 14.07L1.89 14.07L1.89 14.07Q1.64 14.12 1.39 14.11L1.39 14.11L1.39 14.11Q1.39 14.01 1.40 13.91L1.40 13.91L1.40 13.91Q1.41 13.81 1.41 13.71L1.41 13.71L1.41 13.71Q1.41 13.60 1.42 13.49L1.42 13.49L1.42 13.49Q1.26 13.47 1.11 13.41L1.11 13.41L1.11 13.41Q0.97 13.37 0.83 13.32L0.83 13.32L0.83 13.32Q0.68 13.28 0.57 13.22L0.57 13.22L0.57 13.22Q0.52 13.14 0.49 13.02L0.49 13.02L0.49 13.02Q0.46 12.91 0.46 12.78L0.46 12.78L0.46 12.78Q0.45 12.65 0.51 12.48L0.51 12.48L0.51 12.48Q0.93 12.65 1.48 12.73L1.48 12.73L1.48 12.73Q1.50 12.03 1.52 11.07L1.52 11.07L1.52 11.07Q1.54 10.12 1.54 9.06L1.54 9.06L1.54 9.06Q1.54 7.88 1.55 6.73L1.55 6.73L1.55 6.73Q1.56 5.58 1.56 4.76L1.56 4.76L1.56 4.76Q1.16 4.96 0.94 5.32L0.94 5.32L0.94 5.32Q0.72 5.67 0.90 6.22ZM5.11 11.05L5.11 11.05L5.11 11.05Q5.17 10.45 4.94 10.08L4.94 10.08L4.94 10.08Q4.70 9.72 4.33 9.54L4.33 9.54L4.33 9.54Q3.95 9.35 3.51 9.31L3.51 9.31L3.51 9.31Q3.06 9.27 2.71 9.30L2.71 9.30L2.71 9.30Q2.73 10.43 2.75 11.35L2.75 11.35L2.75 11.35Q2.76 12.28 2.78 12.87L2.78 12.87L2.78 12.87Q3.20 12.88 3.60 12.77L3.60 12.77L3.60 12.77Q3.99 12.66 4.31 12.43L4.31 12.43L4.31 12.43Q4.63 12.20 4.85 11.85L4.85 11.85L4.85 11.85Q5.07 11.50 5.11 11.05ZM2.68 4.44L2.68 4.44L2.68 4.44Q2.65 5.14 2.65 6.10L2.65 6.10L2.65 6.10Q2.65 7.05 2.68 8.23L2.68 8.23L2.68 8.23Q2.68 8.34 2.68 8.44L2.68 8.44L2.68 8.44Q2.68 8.54 2.69 8.65L2.69 8.65L2.69 8.65Q3.19 8.61 3.72 8.42L3.72 8.42L3.72 8.42Q4.25 8.22 4.70 7.89L4.70 7.89L4.70 7.89Q5.14 7.56 5.43 7.12L5.43 7.12L5.43 7.12Q5.71 6.67 5.71 6.14L5.71 6.14L5.71 6.14Q5.71 5.73 5.50 5.41L5.50 5.41L5.50 5.41Q5.28 5.09 4.92 4.87L4.92 4.87L4.92 4.87Q4.55 4.65 4.08 4.54L4.08 4.54L4.08 4.54Q3.61 4.43 3.10 4.43L3.10 4.43L3.10 4.43Q2.99 4.43 2.89 4.43L2.89 4.43L2.89 4.43Q2.79 4.43 2.68 4.44ZM11.22 10.21L11.22 10.21L11.22 10.21Q11.20 10.75 11.04 11.20L11.04 11.20L11.04 11.20Q10.88 11.65 10.61 11.98L10.61 11.98L10.61 11.98Q10.34 12.32 9.96 12.51L9.96 12.51L9.96 12.51Q9.58 12.70 9.13 12.71L9.13 12.71L9.13 12.71Q8.74 12.73 8.39 12.52L8.39 12.52L8.39 12.52Q8.04 12.32 7.78 11.95L7.78 11.95L7.78 11.95Q7.52 11.58 7.39 11.07L7.39 11.07L7.39 11.07Q7.26 10.55 7.31 9.95L7.31 9.95L7.31 9.95Q7.36 9.26 7.57 8.76L7.57 8.76L7.57 8.76Q7.79 8.26 8.04 7.93L8.04 7.93L8.04 7.93Q8.29 7.60 8.50 7.44L8.50 7.44L8.50 7.44Q8.71 7.29 8.76 7.26L8.76 7.26L8.76 7.26Q8.86 7.22 8.94 7.24L8.94 7.24L8.94 7.24Q9.02 7.26 9.12 7.29L9.12 7.29L9.12 7.29Q9.15 7.30 9.17 7.36L9.17 7.36L9.17 7.36Q9.23 7.45 9.24 7.71L9.24 7.71L9.24 7.71Q9.31 7.56 9.42 7.46L9.42 7.46L9.42 7.46Q9.53 7.37 9.64 7.33L9.64 7.33L9.64 7.33Q9.78 7.27 9.91 7.26L9.91 7.26L9.91 7.26Q10.01 7.25 10.25 7.41L10.25 7.41L10.25 7.41Q10.49 7.57 10.71 7.93L10.71 7.93L10.71 7.93Q10.94 8.29 11.10 8.85L11.10 8.85L11.10 8.85Q11.27 9.42 11.22 10.21ZM10.29 10.05L10.29 10.05L10.29 10.05Q10.31 9.72 10.27 9.39L10.27 9.39L10.27 9.39Q10.24 9.05 10.17 8.77L10.17 8.77L10.17 8.77Q10.09 8.49 9.98 8.32L9.98 8.32L9.98 8.32Q9.87 8.15 9.76 8.15L9.76 8.15L9.76 8.15Q9.64 8.18 9.49 8.27L9.49 8.27L9.49 8.27Q9.37 8.35 9.21 8.53L9.21 8.53L9.21 8.53Q9.06 8.71 8.93 9.04L8.93 9.04L8.93 9.04Q8.91 9.00 8.90 8.89L8.90 8.89L8.90 8.89Q8.89 8.79 8.88 8.63L8.88 8.63L8.88 8.63Q8.87 8.48 8.90 8.20L8.90 8.20L8.90 8.20Q8.71 8.44 8.61 8.75L8.61 8.75L8.61 8.75Q8.50 9.06 8.45 9.35L8.45 9.35L8.45 9.35Q8.39 9.69 8.37 10.04L8.37 10.04L8.37 10.04Q8.35 10.40 8.40 10.76L8.40 10.76L8.40 10.76Q8.45 11.12 8.57 11.39L8.57 11.39L8.57 11.39Q8.68 11.66 8.85 11.83L8.85 11.83L8.85 11.83Q9.01 11.99 9.24 11.98L9.24 11.98L9.24 11.98Q9.47 11.96 9.65 11.79L9.65 11.79L9.65 11.79Q9.83 11.61 9.97 11.33L9.97 11.33L9.97 11.33Q10.10 11.06 10.19 10.72L10.19 10.72L10.19 10.72Q10.27 10.38 10.29 10.05ZM15.74 10.21L15.74 10.21L15.74 10.21Q15.71 10.75 15.55 11.20L15.55 11.20L15.55 11.20Q15.39 11.65 15.12 11.98L15.12 11.98L15.12 11.98Q14.85 12.32 14.47 12.51L14.47 12.51L14.47 12.51Q14.10 12.70 13.64 12.71L13.64 12.71L13.64 12.71Q13.25 12.73 12.90 12.52L12.90 12.52L12.90 12.52Q12.55 12.32 12.29 11.95L12.29 11.95L12.29 11.95Q12.03 11.58 11.90 11.07L11.90 11.07L11.90 11.07Q11.77 10.55 11.83 9.95L11.83 9.95L11.83 9.95Q11.87 9.26 12.09 8.76L12.09 8.76L12.09 8.76Q12.30 8.26 12.55 7.93L12.55 7.93L12.55 7.93Q12.80 7.60 13.01 7.44L13.01 7.44L13.01 7.44Q13.22 7.29 13.28 7.26L13.28 7.26L13.28 7.26Q13.37 7.22 13.45 7.24L13.45 7.24L13.45 7.24Q13.54 7.26 13.63 7.29L13.63 7.29L13.63 7.29Q13.66 7.30 13.69 7.36L13.69 7.36L13.69 7.36Q13.74 7.45 13.75 7.71L13.75 7.71L13.75 7.71Q13.82 7.56 13.93 7.46L13.93 7.46L13.93 7.46Q14.04 7.37 14.15 7.33L14.15 7.33L14.15 7.33Q14.29 7.27 14.42 7.26L14.42 7.26L14.42 7.26Q14.52 7.25 14.76 7.41L14.76 7.41L14.76 7.41Q15.00 7.57 15.22 7.93L15.22 7.93L15.22 7.93Q15.45 8.29 15.61 8.85L15.61 8.85L15.61 8.85Q15.78 9.42 15.74 10.21ZM14.81 10.05L14.81 10.05L14.81 10.05Q14.82 9.72 14.79 9.39L14.79 9.39L14.79 9.39Q14.75 9.05 14.68 8.77L14.68 8.77L14.68 8.77Q14.60 8.49 14.49 8.32L14.49 8.32L14.49 8.32Q14.38 8.15 14.27 8.15L14.27 8.15L14.27 8.15Q14.15 8.18 14 8.27L14 8.27L14 8.27Q13.88 8.35 13.73 8.53L13.73 8.53L13.73 8.53Q13.58 8.71 13.44 9.04L13.44 9.04L13.44 9.04Q13.43 9.00 13.41 8.89L13.41 8.89L13.41 8.89Q13.40 8.79 13.39 8.63L13.39 8.63L13.39 8.63Q13.38 8.48 13.41 8.20L13.41 8.20L13.41 8.20Q13.22 8.44 13.12 8.75L13.12 8.75L13.12 8.75Q13.02 9.06 12.96 9.35L12.96 9.35L12.96 9.35Q12.91 9.69 12.88 10.04L12.88 10.04L12.88 10.04Q12.87 10.40 12.91 10.76L12.91 10.76L12.91 10.76Q12.96 11.12 13.08 11.39L13.08 11.39L13.08 11.39Q13.19 11.66 13.36 11.83L13.36 11.83L13.36 11.83Q13.52 11.99 13.75 11.98L13.75 11.98L13.75 11.98Q13.99 11.96 14.16 11.79L14.16 11.79L14.16 11.79Q14.34 11.61 14.48 11.33L14.48 11.33L14.48 11.33Q14.62 11.06 14.70 10.72L14.70 10.72L14.70 10.72Q14.78 10.38 14.81 10.05ZM19.24 9.30L19.24 9.30L19.24 9.30Q19.52 9.42 19.78 9.69L19.78 9.69L19.78 9.69Q20.04 9.95 20.11 10.49L20.11 10.49L20.11 10.49Q20.17 10.95 20.26 11.32L20.26 11.32L20.26 11.32Q20.36 11.69 20.54 11.98L20.54 11.98L20.54 11.98Q20.71 12.28 21.01 12.50L21.01 12.50L21.01 12.50Q21.30 12.73 21.77 12.89L21.77 12.89L21.77 12.89Q21.64 13.00 21.47 13.07L21.47 13.07L21.47 13.07Q21.30 13.14 21.15 13.17L21.15 13.17L21.15 13.17Q20.97 13.22 20.78 13.22L20.78 13.22L20.78 13.22Q20.33 13.26 20.04 13.10L20.04 13.10L20.04 13.10Q19.76 12.95 19.59 12.65L19.59 12.65L19.59 12.65Q19.43 12.35 19.35 11.95L19.35 11.95L19.35 11.95Q19.26 11.55 19.22 11.13L19.22 11.13L19.22 11.13Q19.21 10.95 19.18 10.76L19.18 10.76L19.18 10.76Q19.15 10.57 19.09 10.39L19.09 10.39L19.09 10.39Q19.02 10.21 18.90 10.06L18.90 10.06L18.90 10.06Q18.79 9.91 18.61 9.83L18.61 9.83L18.61 9.83Q18.31 10.06 18.05 10.23L18.05 10.23L18.05 10.23Q17.80 10.40 17.61 10.51L17.61 10.51L17.61 10.51Q17.62 11.25 17.68 11.73L17.68 11.73L17.68 11.73Q17.75 12.21 17.86 12.37L17.86 12.37L17.86 12.37Q17.76 12.44 17.66 12.49L17.66 12.49L17.66 12.49Q17.57 12.54 17.50 12.56L17.50 12.56L17.50 12.56Q17.40 12.61 17.32 12.62L17.32 12.62L17.32 12.62Q17.05 12.70 16.84 12.60L16.84 12.60L16.84 12.60Q16.63 12.50 16.61 12.06L16.61 12.06L16.53 4.07L16.53 4.07Q16.53 3.96 16.74 3.85L16.74 3.85L16.74 3.85Q16.95 3.73 17.21 3.66L17.21 3.66L17.21 3.66Q17.47 3.60 17.68 3.60L17.68 3.60L17.68 3.60Q17.90 3.60 17.88 3.72L17.88 3.72L17.88 3.72Q17.84 4.66 17.80 5.50L17.80 5.50L17.80 5.50Q17.76 6.33 17.73 6.97L17.73 6.97L17.73 6.97Q17.69 7.72 17.66 8.34L17.66 8.34L17.66 8.34Q17.64 8.71 17.63 9.05L17.63 9.05L17.63 9.05Q17.62 9.39 17.61 9.71L17.61 9.71L17.61 9.71Q17.87 9.50 18.16 9.26L18.16 9.26L18.16 9.26Q18.44 9.01 18.70 8.71L18.70 8.71L18.70 8.71Q18.96 8.41 19.14 8.06L19.14 8.06L19.14 8.06Q19.32 7.71 19.35 7.31L19.35 7.31L19.35 7.31Q19.50 7.21 19.65 7.13L19.65 7.13L19.65 7.13Q19.81 7.05 19.93 7.01L19.93 7.01L19.93 7.01Q20.08 6.96 20.21 6.96L20.21 6.96L20.21 6.96Q20.52 6.95 20.58 7.10L20.58 7.10L20.58 7.10Q20.62 7.21 20.57 7.42L20.57 7.42L20.57 7.42Q20.52 7.63 20.36 7.92L20.36 7.92L20.36 7.92Q20.21 8.22 19.93 8.57L19.93 8.57L19.93 8.57Q19.66 8.91 19.24 9.30ZM25.51 6.13L24.08 13.18L24.06 13.18L24.08 13.19L24.08 13.19Q23.95 13.34 23.84 13.43L23.84 13.43L23.84 13.43Q23.72 13.51 23.61 13.56L23.61 13.56L23.61 13.56Q23.49 13.62 23.39 13.64L23.39 13.64L23.39 13.64Q23.31 13.66 23.23 13.66L23.23 13.66L23.23 13.66Q23.15 13.66 23.04 13.65L23.04 13.65L23.04 13.65Q22.94 13.64 22.83 13.62L22.83 13.62L22.83 13.62Q22.57 12.80 22.38 11.90L22.38 11.90L22.38 11.90Q22.19 11.01 22.05 10.25L22.05 10.25L22.05 10.25Q21.90 9.38 21.79 8.52L21.79 8.52L21.79 8.52Q21.68 7.68 21.62 6.85L21.62 6.85L21.62 6.85Q21.59 6.49 21.55 6.11L21.55 6.11L21.55 6.11Q21.52 5.73 21.50 5.34L21.50 5.34L21.50 5.34Q21.48 4.95 21.47 4.57L21.47 4.57L21.47 4.57Q21.46 4.20 21.48 3.87L21.48 3.87L21.48 3.87Q21.75 3.68 22.03 3.58L22.03 3.58L22.03 3.58Q22.31 3.49 22.53 3.43L22.53 3.43L22.53 3.43Q22.78 3.38 23.01 3.36L23.01 3.36L23.01 3.36Q22.91 3.47 22.87 3.73L22.87 3.73L22.87 3.73Q22.82 3.98 22.82 4.44L22.82 4.44L22.82 4.44Q22.82 4.91 22.86 5.63L22.86 5.63L22.86 5.63Q22.90 6.36 23.00 7.40L23.00 7.40L23.00 7.40Q23.04 7.77 23.08 8.20L23.08 8.20L23.08 8.20Q23.13 8.64 23.19 9.11L23.19 9.11L23.19 9.11Q23.24 9.58 23.30 10.06L23.30 10.06L23.30 10.06Q23.37 10.53 23.42 10.95L23.42 10.95L23.42 10.95Q23.54 10.21 23.73 9.23L23.73 9.23L23.73 9.23Q23.91 8.24 24.19 7.19L24.19 7.19L24.19 7.19Q24.38 6.43 24.54 5.77L24.54 5.77L24.54 5.77Q24.69 5.20 24.83 4.66L24.83 4.66L24.83 4.66Q24.98 4.12 25.06 3.86L25.06 3.86L25.06 3.86Q25.32 3.75 25.51 3.71L25.51 3.71L25.51 3.71Q25.62 3.68 25.70 3.66L25.70 3.66L25.89 3.66L25.89 3.66Q25.99 3.66 26.10 3.68L26.10 3.68L26.10 3.68Q26.21 3.69 26.33 3.73L26.33 3.73L26.33 3.73Q26.44 4.89 26.56 5.94L26.56 5.94L26.56 5.94Q26.69 6.99 26.80 7.81L26.80 7.81L26.80 7.81Q26.93 8.76 27.06 9.57L27.06 9.57L27.06 9.57Q27.13 10.12 27.21 10.57L27.21 10.57L27.21 10.57Q27.30 11.02 27.37 11.40L27.37 11.40L27.37 11.40Q27.44 11.03 27.56 10.49L27.56 10.49L27.56 10.49Q27.67 9.95 27.77 9.17L27.77 9.17L27.77 9.17Q27.90 8.34 28.01 7.45L28.01 7.45L28.01 7.45Q28.11 6.69 28.20 5.75L28.20 5.75L28.20 5.75Q28.29 4.81 28.34 3.87L28.34 3.87L28.34 3.87Q28.45 3.77 28.57 3.71L28.57 3.71L28.57 3.71Q28.68 3.64 28.79 3.58L28.79 3.58L28.79 3.58Q28.92 3.53 29.04 3.49L29.04 3.49L29.04 3.49Q29.16 3.45 29.30 3.42L29.30 3.42L29.30 3.42Q29.41 3.39 29.54 3.38L29.54 3.38L29.54 3.38Q29.68 3.36 29.79 3.38L29.79 3.38L29.79 3.38Q29.72 4.10 29.60 4.97L29.60 4.97L29.60 4.97Q29.48 5.84 29.35 6.59L29.35 6.59L29.35 6.59Q29.20 7.48 29.05 8.35L29.05 8.35L29.05 8.35Q28.89 9.23 28.68 10.13L28.68 10.13L28.68 10.13Q28.51 10.91 28.28 11.81L28.28 11.81L28.28 11.81Q28.05 12.70 27.79 13.49L27.79 13.49L27.79 13.49Q27.71 13.58 27.60 13.61L27.60 13.61L27.60 13.61Q27.49 13.64 27.38 13.67L27.38 13.67L27.38 13.67Q27.26 13.70 27.15 13.70L27.15 13.70L27.15 13.70Q26.93 13.70 26.81 13.65L26.81 13.65L26.81 13.65Q26.69 13.60 26.63 13.51L26.63 13.51L26.63 13.51Q26.56 13.43 26.54 13.30L26.54 13.30L26.54 13.30Q26.51 13.18 26.48 13.03L26.48 13.03L25.51 6.13ZM30.31 7.72L30.31 7.72L30.31 7.72Q30.31 7.64 30.53 7.55L30.53 7.55L30.53 7.55Q30.75 7.45 31.01 7.39L31.01 7.39L31.01 7.39Q31.28 7.33 31.51 7.32L31.51 7.32L31.51 7.32Q31.73 7.31 31.73 7.42L31.73 7.42L31.73 7.42Q31.73 7.63 31.71 8.00L31.71 8.00L31.71 8.00Q31.68 8.38 31.64 8.80L31.64 8.80L31.64 8.80Q31.60 9.21 31.55 9.63L31.55 9.63L31.55 9.63Q31.51 10.05 31.50 10.34L31.50 10.34L31.50 10.34Q31.47 10.64 31.45 10.99L31.45 10.99L31.45 10.99Q31.42 11.29 31.40 11.66L31.40 11.66L31.40 11.66Q31.39 12.03 31.40 12.41L31.40 12.41L31.40 12.41Q31.40 12.48 31.27 12.55L31.27 12.55L31.27 12.55Q31.13 12.62 30.97 12.65L30.97 12.65L30.97 12.65Q30.80 12.69 30.65 12.69L30.65 12.69L30.65 12.69Q30.50 12.69 30.49 12.63L30.49 12.63L30.49 12.63Q30.46 12.58 30.43 12.44L30.43 12.44L30.43 12.44Q30.41 12.30 30.38 12.05L30.38 12.05L30.38 12.05Q30.35 11.80 30.34 11.40L30.34 11.40L30.34 11.40Q30.32 10.99 30.35 10.42L30.35 10.42L30.35 10.42Q30.41 9.28 30.37 8.66L30.37 8.66L30.37 8.66Q30.32 8.04 30.31 7.72ZM31.27 5.00L31.27 5.00L31.27 5.00Q31.54 5.00 31.79 5.17L31.79 5.17L31.79 5.17Q32.03 5.33 32.03 5.61L32.03 5.61L32.03 5.61Q32.03 5.81 31.93 6.00L31.93 6.00L31.93 6.00Q31.83 6.19 31.68 6.34L31.68 6.34L31.68 6.34Q31.53 6.49 31.34 6.58L31.34 6.58L31.34 6.58Q31.14 6.67 30.98 6.67L30.98 6.67L30.98 6.67Q30.76 6.67 30.63 6.60L30.63 6.60L30.63 6.60Q30.49 6.52 30.41 6.42L30.41 6.42L30.41 6.42Q30.34 6.32 30.31 6.19L30.31 6.19L30.31 6.19Q30.28 6.07 30.28 5.96L30.28 5.96L30.28 5.96Q30.28 5.82 30.32 5.65L30.32 5.65L30.32 5.65Q30.37 5.48 30.47 5.34L30.47 5.34L30.47 5.34Q30.58 5.20 30.78 5.10L30.78 5.10L30.78 5.10Q30.97 5.00 31.27 5.00ZM30.93 6.28L30.93 6.28L30.93 6.28Q31.01 6.28 31.11 6.21L31.11 6.21L31.11 6.21Q31.21 6.15 31.30 6.07L31.30 6.07L31.30 6.07Q31.39 5.99 31.45 5.89L31.45 5.89L31.45 5.89Q31.51 5.80 31.51 5.73L31.51 5.73L31.51 5.73Q31.51 5.62 31.40 5.62L31.40 5.62L31.40 5.62Q31.34 5.62 31.23 5.67L31.23 5.67L31.23 5.67Q31.13 5.73 31.04 5.80L31.04 5.80L31.04 5.80Q30.94 5.88 30.88 5.97L30.88 5.97L30.88 5.97Q30.82 6.06 30.82 6.14L30.82 6.14L30.82 6.14Q30.82 6.28 30.93 6.28ZM34.84 9.97L34.84 9.97L34.84 9.97Q35.14 10.08 35.41 10.17L35.41 10.17L35.41 10.17Q35.68 10.27 35.89 10.40L35.89 10.40L35.89 10.40Q36.09 10.54 36.22 10.73L36.22 10.73L36.22 10.73Q36.34 10.91 36.34 11.18L36.34 11.18L36.34 11.18Q36.34 11.51 36.20 11.80L36.20 11.80L36.20 11.80Q36.05 12.09 35.78 12.30L35.78 12.30L35.78 12.30Q35.51 12.52 35.12 12.65L35.12 12.65L35.12 12.65Q34.73 12.78 34.25 12.78L34.25 12.78L34.25 12.78Q33.71 12.78 33.39 12.68L33.39 12.68L33.39 12.68Q33.06 12.58 32.88 12.44L32.88 12.44L32.88 12.44Q32.70 12.30 32.65 12.17L32.65 12.17L32.65 12.17Q32.59 12.03 32.59 11.95L32.59 11.95L32.59 11.95Q32.59 11.79 32.66 11.59L32.66 11.59L32.66 11.59Q32.73 11.39 32.92 11.16L32.92 11.16L32.92 11.16Q33.00 11.06 33.10 10.98L33.10 10.98L33.10 10.98Q33.29 10.81 33.48 10.77L33.48 10.77L33.48 10.77Q33.46 11.09 33.56 11.29L33.56 11.29L33.56 11.29Q33.66 11.48 33.83 11.59L33.83 11.59L33.83 11.59Q34.00 11.70 34.21 11.74L34.21 11.74L34.21 11.74Q34.43 11.79 34.62 11.79L34.62 11.79L34.62 11.79Q34.81 11.79 35.01 11.73L35.01 11.73L35.01 11.73Q35.21 11.68 35.37 11.59L35.37 11.59L35.37 11.59Q35.53 11.50 35.64 11.38L35.64 11.38L35.64 11.38Q35.74 11.27 35.74 11.13L35.74 11.13L35.74 11.13Q35.74 10.98 35.62 10.88L35.62 10.88L35.62 10.88Q35.49 10.79 35.31 10.73L35.31 10.73L35.31 10.73Q35.12 10.66 34.91 10.63L34.91 10.63L34.91 10.63Q34.70 10.60 34.51 10.55L34.51 10.55L34.51 10.55Q34.32 10.51 34.00 10.44L34.00 10.44L34.00 10.44Q33.67 10.36 33.37 10.20L33.37 10.20L33.37 10.20Q33.06 10.04 32.83 9.76L32.83 9.76L32.83 9.76Q32.61 9.49 32.61 9.04L32.61 9.04L32.61 9.04Q32.61 8.52 32.87 8.13L32.87 8.13L32.87 8.13Q33.14 7.74 33.53 7.47L33.53 7.47L33.53 7.47Q33.92 7.21 34.36 7.07L34.36 7.07L34.36 7.07Q34.79 6.93 35.14 6.93L35.14 6.93L35.14 6.93Q35.31 6.93 35.52 6.98L35.52 6.98L35.52 6.98Q35.72 7.03 35.90 7.14L35.90 7.14L35.90 7.14Q36.08 7.26 36.20 7.45L36.20 7.45L36.20 7.45Q36.31 7.64 36.31 7.94L36.31 7.94L36.31 7.94Q36.31 8.24 36.26 8.43L36.26 8.43L36.26 8.43Q36.22 8.61 36.13 8.72L36.13 8.72L36.13 8.72Q36.04 8.82 35.92 8.85L35.92 8.85L35.92 8.85Q35.79 8.87 35.63 8.87L35.63 8.87L35.63 8.87Q35.52 8.87 35.42 8.85L35.42 8.85L35.42 8.85Q35.34 8.82 35.25 8.79L35.25 8.79L35.25 8.79Q35.15 8.76 35.07 8.70L35.07 8.70L35.07 8.70Q35.21 8.53 35.28 8.38L35.28 8.38L35.28 8.38Q35.36 8.23 35.36 8.01L35.36 8.01L35.36 8.01Q35.36 7.82 35.25 7.67L35.25 7.67L35.25 7.67Q35.15 7.52 34.92 7.52L34.92 7.52L34.92 7.52Q34.67 7.52 34.45 7.62L34.45 7.62L34.45 7.62Q34.22 7.71 34.05 7.88L34.05 7.88L34.05 7.88Q33.88 8.04 33.78 8.25L33.78 8.25L33.78 8.25Q33.67 8.46 33.67 8.71L33.67 8.71L33.67 8.71Q33.67 9.08 33.95 9.41L33.95 9.41L33.95 9.41Q34.23 9.73 34.84 9.97ZM38.96 12.71L38.96 12.71L38.96 12.71Q38.01 12.71 37.49 12.07L37.49 12.07L37.49 12.07Q36.97 11.43 36.97 10.39L36.97 10.39L36.97 10.39Q36.97 9.67 37.18 9.03L37.18 9.03L37.18 9.03Q37.39 8.39 37.75 7.93L37.75 7.93L37.75 7.93Q38.10 7.46 38.58 7.20L38.58 7.20L38.58 7.20Q39.05 6.93 39.57 6.93L39.57 6.93L39.57 6.93Q40.07 6.93 40.43 7.29L40.43 7.29L40.43 7.29Q40.78 7.66 40.78 8.33L40.78 8.33L40.78 8.33Q40.78 8.76 40.59 9.19L40.59 9.19L40.59 9.19Q40.40 9.63 40.09 9.96L40.09 9.96L40.09 9.96Q39.79 10.29 39.42 10.50L39.42 10.50L39.42 10.50Q39.05 10.71 38.71 10.71L38.71 10.71L38.71 10.71Q38.49 10.71 38.34 10.65L38.34 10.65L38.34 10.65Q38.19 10.60 38.06 10.49L38.06 10.49L38.06 10.49Q38.10 11.27 38.40 11.57L38.40 11.57L38.40 11.57Q38.71 11.88 39.18 11.88L39.18 11.88L39.18 11.88Q39.51 11.88 39.76 11.74L39.76 11.74L39.76 11.74Q40.02 11.61 40.20 11.43L40.20 11.43L40.20 11.43Q40.37 11.25 40.48 11.07L40.48 11.07L40.48 11.07Q40.59 10.88 40.63 10.79L40.63 10.79L40.63 10.79Q40.67 10.71 40.78 10.71L40.78 10.71L40.78 10.71Q40.88 10.71 40.88 10.87L40.88 10.87L40.88 10.87Q40.88 11.02 40.78 11.33L40.78 11.33L40.78 11.33Q40.67 11.63 40.44 11.94L40.44 11.94L40.44 11.94Q40.21 12.25 39.85 12.48L39.85 12.48L39.85 12.48Q39.48 12.71 38.96 12.71ZM39.59 7.52L39.59 7.52L39.59 7.52Q39.51 7.52 39.29 7.69L39.29 7.69L39.29 7.69Q39.06 7.86 38.81 8.19L38.81 8.19L38.81 8.19Q38.55 8.52 38.34 8.98L38.34 8.98L38.34 8.98Q38.13 9.43 38.08 10.01L38.08 10.01L38.08 10.01Q38.90 9.82 39.38 9.41L39.38 9.41L39.38 9.41Q39.85 9.00 39.85 8.20L39.85 8.20L39.85 8.20Q39.85 7.81 39.76 7.66L39.76 7.66L39.76 7.66Q39.66 7.52 39.59 7.52Z"></path></g><defs data-v-fde0c5aa=""><!----></defs><g data-v-fde0c5aa="" id="f5b92a1c-8c17-4602-a3de-25e88ec31da1" stroke="none" fill="#ED7884" transform="matrix(1.7278247683903576,0,0,1.7278247683903576,63.60876158048211,20.942093266033346)"><path style="text-indent:0;text-transform:none;block-progression:tb" d="M50 11.031l-1.625 2.813-3.719 6.469-.531.937.531.938 25.75 44.593h-24.75l-.531.938-3.719 6.5L39.781 77H43l41.875.031L88.094 77l-1.625-2.813-34.844-60.343L50 11.03zM43.094 23l-1.625 2.813L6.625 86.186 5 88.97h11.813l.53-.938 25.75-44.594 11.844 20.47.5.937H67.25l-1.625-2.781-20.906-36.25L43.094 23zm-.125 24.125l-1.594 2.813-20.938 36.218-1.625 2.813H95l-1.625-2.813-3.719-6.469-.562-.937H36.53l11.813-20.469.531-.937-.531-.938-3.75-6.468-1.625-2.813z" overflow="visible" color="#000"></path></g><!----></svg>